<svg viewBox="0 0 80 80" xmlns="http://www.w3.org/2000/svg" width="80.000000" height="80.000000" fill="none">
    <defs>
        <clipPath id="clipPath_0">
            <rect width="66.000000" height="63.000000" x="7.000000" y="8.000000" fill="rgb(255,255,255)" />
        </clipPath>
        <clipPath id="clipPath_1">
            <rect width="11.169231" height="6.096775" x="7.000000" y="64.903229" fill="rgb(255,255,255)" />
        </clipPath>
    </defs>
    <rect id="Image" width="80.000000" height="80.000000" x="0.000000" y="0.000000" />
    <g id="plan/ flat furniture" customFrame="url(#clipPath_0)">
        <rect id="plan/ flat furniture" width="66.000000" height="63.000000" x="7.000000" y="8.000000" fill="rgb(255,255,255)" fill-opacity="0" />
        <g id="flat_plan_gor copy 2">
            <path id="Shape" d="M68.5173 20.2099L68.5173 19.0926L70.4425 19.0926L70.4425 10.5765L63.0491 10.5765L63.0491 19.0926L64.1655 19.0926L64.1655 20.2099L63.0491 20.2099L61.9326 20.2099L57.2619 20.2099L57.2619 19.0926L61.9326 19.0926L61.9326 10.5765L60.2808 10.5765L54.243 10.5765L51.7709 10.5765L51.7709 19.0926L53.4228 19.0926L53.4228 20.2099L51.7709 20.2099L51.7709 28.7032L50.6545 28.7032L50.6545 27.8824L36.403 27.8824L36.403 26.7651L50.6545 26.7651L50.6545 10.5765L41.894 10.5765L33.6575 10.5765L30.388 10.5765L30.388 26.7537L33.1334 26.7537L33.1334 27.871L30.388 27.871L29.2715 27.871L26.7994 27.871L26.7994 24.8271L29.2715 24.8271L29.2715 10.5765L22.4135 10.5765L14.177 10.5765L9.50626 10.5765L9.50626 26.7537L21.8553 26.7537L22.9717 26.7537L23.8147 26.7537L23.8147 27.871L22.9717 27.871L22.9717 28.6918L21.8553 28.6918L21.8553 27.871L9.51765 27.871L9.51765 38.3024L21.8667 38.3024L21.8667 32.5338L22.9831 32.5338L22.9831 38.3024L22.9831 39.4196L9.51765 39.4196L9.51765 59.188L14.1884 59.188L22.4249 59.188L30.3538 59.188L30.3538 36.4099L27.0843 36.4099L27.0843 35.2927L30.3538 35.2927L31.4702 35.2927L50.6545 35.2927L50.6545 32.5452L51.7709 32.5452L51.7709 35.2927L52.8873 35.2927L52.8873 36.4099L51.7709 36.4099L50.6545 36.4099L31.4702 36.4099L31.4702 59.188L33.6689 59.188L41.9054 59.188L53.4342 59.188L58.3783 59.188L58.3783 59.7352L58.3783 60.0088L58.3783 61.6961L53.4342 61.6961L48.2166 61.6961L48.2166 68.525L66.0566 68.525L66.0566 61.6961L62.2174 61.6961L62.2174 59.188L70.4539 59.188L70.4539 36.4099L58.6403 36.4099L58.6403 35.2927L70.4425 35.2927L70.4425 24.8613L72.9488 24.8613L72.9488 61.6961L70.4425 61.6961L66.6034 61.6961L66.6034 68.525L66.6034 69.0722L66.0566 69.0722L48.2052 69.0722L47.6584 69.0722L47.6584 68.525L47.6584 61.6961L41.894 61.6961L33.6575 61.6961L22.4021 61.6961L14.177 61.6961L9.50626 61.6961L7 61.6961L7 59.188L7 10.5765L7 8.06842L9.50626 8.06842L14.177 8.06842L22.4135 8.06842L33.6689 8.06842L41.9054 8.06842L54.2544 8.06842L60.2922 8.06842L70.4425 8.06842L72.9488 8.06842L72.9488 10.5765L72.9488 20.7571L70.4425 20.7571L70.4425 20.2099L68.5173 20.2099Z" fill="rgb(40.6894,48.8731,60.389)" fill-rule="nonzero" />
            <g id="kitchen">
                <path id="kitchen" d="M70.545 36.3983L67.2527 36.3983L67.2527 45.7355L67.3894 45.7355L67.3894 45.8723L70.4083 45.8723L70.4083 45.7355L70.545 45.7355L70.545 36.3983ZM70.4083 45.7355L67.3894 45.7355L67.3894 36.5351L70.4083 36.5351L70.4083 45.7355ZM67.8109 46.3511C67.7312 46.4423 67.6742 46.5563 67.6742 46.6931C67.6742 46.8299 67.7312 46.9439 67.8109 47.0351C67.902 47.1149 68.016 47.1719 68.1527 47.1719C68.2346 47.1719 68.3083 47.1555 68.3739 47.1228C68.4177 47.1009 68.4579 47.0717 68.4944 47.0351C68.5742 46.9439 68.6311 46.8299 68.6311 46.6931C68.6311 46.5563 68.5856 46.4423 68.4944 46.3511C68.4033 46.2713 68.2894 46.2143 68.1527 46.2143C68.0707 46.2143 67.997 46.2307 67.9314 46.2634C67.8876 46.2853 67.8474 46.3145 67.8109 46.3511ZM69.1666 46.6931C69.1666 46.5563 69.2235 46.4423 69.3033 46.3511C69.3944 46.2599 69.5083 46.2143 69.645 46.2143C69.7817 46.2143 69.8957 46.2713 69.9868 46.3511C70.0779 46.4423 70.1235 46.5563 70.1235 46.6931C70.1235 46.8299 70.0665 46.9439 69.9868 47.0351C69.9503 47.0717 69.9101 47.1009 69.8663 47.1228C69.8007 47.1555 69.727 47.1719 69.645 47.1719C69.5083 47.1719 69.3944 47.1149 69.3033 47.0351C69.2235 46.9439 69.1666 46.8299 69.1666 46.6931ZM67.8109 46.6931C67.8109 46.6019 67.8565 46.5107 67.9134 46.4537C67.9704 46.3853 68.0615 46.3511 68.1527 46.3511C68.2438 46.3511 68.3349 46.3967 68.3919 46.4537C68.4603 46.5107 68.4944 46.6019 68.4944 46.6931C68.4944 46.7843 68.4489 46.8755 68.3919 46.9325C68.3349 47.0009 68.2438 47.0351 68.1527 47.0351C68.0615 47.0351 67.9704 46.9895 67.9134 46.9325C67.8451 46.8755 67.8109 46.7843 67.8109 46.6931ZM69.4058 46.4537C69.3488 46.5107 69.3033 46.6019 69.3033 46.6931C69.3033 46.7843 69.3374 46.8755 69.4058 46.9325C69.4628 46.9895 69.5539 47.0351 69.645 47.0351C69.7362 47.0351 69.8273 47.0009 69.8843 46.9325C69.9412 46.8755 69.9868 46.7843 69.9868 46.6931C69.9868 46.6019 69.9526 46.5107 69.8843 46.4537C69.8273 46.3967 69.7362 46.3511 69.645 46.3511C69.5539 46.3511 69.4628 46.3853 69.4058 46.4537ZM67.8109 47.7191C67.7312 47.8103 67.6742 47.9243 67.6742 48.0611C67.6742 48.198 67.7312 48.312 67.8109 48.4032C67.902 48.483 68.016 48.54 68.1527 48.54C68.2346 48.54 68.3083 48.5236 68.3739 48.4908C68.4177 48.4689 68.4579 48.4397 68.4944 48.4032C68.5742 48.312 68.6311 48.198 68.6311 48.0611C68.6311 47.979 68.6147 47.905 68.5818 47.8393L68.5818 47.8393C68.5599 47.7956 68.5308 47.7556 68.4944 47.7191C68.4033 47.6393 68.2894 47.5823 68.1527 47.5823C68.0707 47.5823 67.997 47.5987 67.9314 47.6315C67.8876 47.6534 67.8474 47.6826 67.8109 47.7191ZM69.1666 48.0611C69.1666 47.9243 69.2235 47.8103 69.3033 47.7191C69.3944 47.6279 69.5083 47.5823 69.645 47.5823C69.7817 47.5823 69.8957 47.6393 69.9868 47.7191C70.0232 47.7556 70.0523 47.7956 70.0742 47.8393C70.107 47.905 70.1235 47.979 70.1235 48.0611C70.1235 48.198 70.0665 48.312 69.9868 48.4032C69.9503 48.4397 69.9101 48.4689 69.8663 48.4908C69.8007 48.5236 69.727 48.54 69.645 48.54C69.5083 48.54 69.3944 48.483 69.3033 48.4032C69.2235 48.312 69.1666 48.198 69.1666 48.0611ZM67.8109 48.0611C67.8109 47.9699 67.8565 47.8787 67.9134 47.8217C67.9704 47.7533 68.0615 47.7191 68.1527 47.7191C68.2438 47.7191 68.3349 47.7647 68.3919 47.8217C68.4603 47.8787 68.4944 47.9699 68.4944 48.0611C68.4944 48.1524 68.4489 48.2436 68.3919 48.3006C68.3349 48.369 68.2438 48.4032 68.1527 48.4032C68.0615 48.4032 67.9704 48.3576 67.9134 48.3006C67.8451 48.2436 67.8109 48.1524 67.8109 48.0611ZM69.4058 47.8217C69.3488 47.8787 69.3033 47.9699 69.3033 48.0611C69.3033 48.1524 69.3374 48.2436 69.4058 48.3006C69.4628 48.3576 69.5539 48.4032 69.645 48.4032C69.7362 48.4032 69.8273 48.369 69.8843 48.3006C69.9412 48.2436 69.9868 48.1524 69.9868 48.0611C69.9868 47.9699 69.9526 47.8787 69.8843 47.8217C69.8273 47.7647 69.7362 47.7191 69.645 47.7191C69.5539 47.7191 69.4628 47.7533 69.4058 47.8217ZM70.4083 48.8934L67.3894 48.8934L67.3894 49.0302L67.2527 49.0302L67.2527 53.4588L70.545 53.4588L70.545 49.0302L70.4083 49.0302L70.4083 48.8934ZM70.4083 49.0302L70.4083 53.322L67.3894 53.322L67.3894 49.0302L70.4083 49.0302Z" fill="rgb(40.6894,48.8731,60.389)" fill-rule="evenodd" />
            </g>
            <g id="bathroom small">
                <path id="toilet copy" d="M0 3.57712L0 1.0139C0 0.740486 0.114004 0.478468 0.296411 0.296194C0.478818 0.113921 0.729628 0 1.01464 0C1.28825 0 1.55046 0.113921 1.73287 0.296194C1.91527 0.478468 2.02928 0.729094 2.02928 1.0139L2.02928 3.57712L0 3.57712ZM1.65306 0.387331C1.49346 0.227842 1.26545 0.125313 1.01464 0.125313C0.763829 0.125313 0.53582 0.227842 0.376214 0.387331C0.216608 0.546821 0.114004 0.774662 0.114004 1.02529L0.114004 3.47459L1.91527 3.47459L1.91527 1.02529C1.91527 0.774662 1.81267 0.546821 1.65306 0.387331ZM0.114004 2.4493L1.91527 2.4493L1.91527 2.56322L0.114004 2.56322L0.114004 2.4493Z" fill="rgb(40.6894,48.8731,60.389)" fill-rule="evenodd" transform="matrix(6.11875e-17,-1,1,6.12772e-17,58.3584,14.1216)" />
                <path id="washbasin copy" d="M3.29473 2.63158L3.29473 1.69742C3.29473 1.23035 3.11232 0.80884 2.80451 0.501253C2.5081 0.193666 2.09768 0 1.64166 0C1.18565 0 0.77523 0.193666 0.478818 0.501253C0.182407 0.80884 0 1.23035 0 1.69742L0 2.63158L3.29473 2.63158ZM0.581422 0.592387C0.307811 0.877189 0.136805 1.26452 0.136805 1.69742L0.136805 2.50626L3.18072 2.50626L3.18072 1.69742C3.18072 1.26452 3.00972 0.877189 2.7361 0.592387C2.46249 0.307585 2.08628 0.136703 1.66446 0.136703C1.23125 0.136703 0.855032 0.307585 0.581422 0.592387ZM0.353412 1.65185L0.353412 1.91387L2.92991 1.91387L2.92991 1.65185C2.92991 1.2873 2.79311 0.968327 2.5651 0.740486C2.33709 0.512645 2.02928 0.364548 1.68726 0.364548L1.59606 0.364548C1.25405 0.364548 0.946235 0.512645 0.718226 0.740486C0.490217 0.979719 0.353412 1.2987 0.353412 1.65185ZM1.68726 0.501251C1.99508 0.501251 2.26869 0.637956 2.47389 0.843014C2.6791 1.04807 2.80451 1.33287 2.80451 1.65185L2.80451 1.77716L0.478818 1.77716L0.478818 1.65185C0.478818 1.34427 0.604223 1.04807 0.809431 0.843014C1.00324 0.626564 1.28825 0.501251 1.59606 0.501251L1.68726 0.501251ZM1.62869 1.56393C1.51505 1.56393 1.43425 1.48364 1.43425 1.3754C1.43425 1.26715 1.52613 1.1766 1.62869 1.1766C1.73124 1.1766 1.81538 1.26647 1.81538 1.3754C1.81538 1.48432 1.74232 1.56393 1.62869 1.56393ZM1.52318 1.37539C1.52318 1.31399 1.5635 1.26774 1.62869 1.26774C1.69387 1.26774 1.7325 1.32656 1.7325 1.37539C1.7325 1.42423 1.69589 1.48305 1.62869 1.48305C1.56149 1.48305 1.52318 1.4368 1.52318 1.37539Z" fill="rgb(40.6894,48.8731,60.389)" fill-rule="evenodd" transform="matrix(6.11876e-17,-1,1,6.12771e-17,59.304,18.1969)" />
            </g>
            <g id="bathroom large">
                <path id="toilet" d="M14.7352 38.3138L14.7352 35.7487C14.7352 35.4751 14.8492 35.2129 15.0314 35.0304C15.2137 34.848 15.4643 34.734 15.7491 34.734C16.0225 34.734 16.2846 34.848 16.4668 35.0304C16.6491 35.2129 16.763 35.4637 16.763 35.7487L16.763 38.3138L14.7352 38.3138ZM16.3871 35.1217C16.2276 34.962 15.9998 34.8594 15.7491 34.8594C15.4985 34.8594 15.2707 34.962 15.1112 35.1217C14.9517 35.2813 14.8492 35.5093 14.8492 35.7601L14.8492 37.1851L16.6491 37.1851L16.6491 35.7601C16.6491 35.5093 16.5466 35.2813 16.3871 35.1217ZM16.6491 37.2991L14.8492 37.2991L14.8492 38.2112L16.6491 38.2112L16.6491 37.2991Z" fill="rgb(40.6894,48.8731,60.389)" fill-rule="evenodd" />
                <path id="washbasin" d="M21.0009 38.3138L21.0009 37.3789C21.0009 36.9115 20.8187 36.4897 20.5111 36.1819C20.2149 35.8741 19.8048 35.6803 19.3491 35.6803C18.8934 35.6803 18.4833 35.8741 18.1871 36.1819C17.8909 36.4897 17.7086 36.9115 17.7086 37.3789L17.7086 38.3138L21.0009 38.3138ZM18.2896 36.2731C18.0162 36.5581 17.8453 36.9457 17.8453 37.3789L17.8453 38.1884L20.887 38.1884L20.887 37.3789C20.887 36.9457 20.7161 36.5581 20.4427 36.2731C20.1693 35.9881 19.7934 35.8171 19.3719 35.8171C18.939 35.8171 18.563 35.9881 18.2896 36.2731ZM18.0618 37.3333L18.0618 37.5955L20.6364 37.5955L20.6364 37.3333C20.6364 36.9685 20.4997 36.6493 20.2718 36.4213C20.044 36.1933 19.7364 36.0451 19.3946 36.0451L19.3035 36.0451C18.9617 36.0451 18.6542 36.1933 18.4263 36.4213C18.1985 36.6607 18.0618 36.9799 18.0618 37.3333ZM19.3946 36.1819C19.7022 36.1819 19.9756 36.3187 20.1807 36.5239C20.3858 36.7291 20.5111 37.0141 20.5111 37.3333L20.5111 37.4587L18.1871 37.4587L18.1871 37.3333C18.1871 37.0255 18.3124 36.7291 18.5175 36.5239C18.7111 36.3073 18.9959 36.1819 19.3035 36.1819L19.3946 36.1819ZM19.3361 37.2453C19.2226 37.2453 19.1418 37.165 19.1418 37.0567C19.1418 36.9483 19.2336 36.8577 19.3361 36.8577C19.4386 36.8577 19.5227 36.9477 19.5227 37.0567C19.5227 37.1657 19.4497 37.2453 19.3361 37.2453ZM19.2307 37.0567C19.2307 36.9952 19.271 36.9489 19.3361 36.9489C19.4012 36.9489 19.4399 37.0078 19.4399 37.0567C19.4399 37.1055 19.4033 37.1644 19.3361 37.1644C19.269 37.1644 19.2307 37.1181 19.2307 37.0567Z" fill="rgb(40.6894,48.8731,60.389)" fill-rule="evenodd" />
                <path id="bath" d="M12.81 27.8824L9.5177 27.8824L9.5177 34.9735L12.81 34.9735L12.81 27.8824ZM12.7075 27.9736L12.7075 34.8823L9.60884 34.8823L9.60884 27.9736L12.7075 27.9736ZM9.87085 33.4116L9.87085 29.4671C9.87085 29.1136 10.0076 28.8286 10.224 28.6234C10.4632 28.4068 10.7822 28.2928 11.1468 28.2928C11.5113 28.2928 11.8417 28.4068 12.0695 28.6234C12.286 28.8286 12.4227 29.1136 12.4227 29.4671L12.4227 33.4116C12.4227 33.765 12.286 34.05 12.0695 34.2552C11.8303 34.4718 11.5113 34.5858 11.1468 34.5858C10.7822 34.5858 10.4519 34.4718 10.224 34.2552C10.0076 34.05 9.87085 33.765 9.87085 33.4116ZM12.0126 34.1868C12.2176 34.0044 12.3429 33.7422 12.3429 33.4116L12.3429 29.467C12.3429 29.1364 12.2176 28.8856 12.0126 28.6918C11.7961 28.498 11.4885 28.384 11.1468 28.384C10.805 28.384 10.4974 28.4866 10.281 28.6918C10.0759 28.8742 9.9506 29.1364 9.9506 29.467L9.9506 33.4116C9.9506 33.7422 10.0759 33.993 10.281 34.1868C10.4974 34.3806 10.805 34.4946 11.1468 34.4946C11.4885 34.4832 11.7961 34.3806 12.0126 34.1868ZM10.946 33.672C10.946 33.7803 11.0267 33.8607 11.1403 33.8607C11.2538 33.8607 11.3268 33.781 11.3268 33.672C11.3268 33.563 11.2427 33.473 11.1403 33.473C11.0378 33.473 10.946 33.5637 10.946 33.672ZM11.0348 33.672C11.0348 33.6105 11.0751 33.5642 11.1403 33.5642C11.2054 33.5642 11.244 33.6231 11.244 33.672C11.244 33.7209 11.2074 33.7797 11.1403 33.7797C11.0731 33.7797 11.0348 33.7334 11.0348 33.672Z" fill="rgb(40.6894,48.8731,60.389)" fill-rule="evenodd" />
            </g>
            <g id="windows">
                <g id="window">
                    <g id="Group">
                        <path id="Rectangle-path" d="M53.4797 59.245L58.31 59.245L58.31 61.6391L53.4797 61.6391L53.4797 59.245Z" fill="rgb(255,255,255)" fill-rule="nonzero" />
                        <path id="Shape" d="M53.4114 61.6961L53.4114 59.188L58.3555 59.188L58.3555 61.6961L53.4114 61.6961ZM53.5253 61.5821L58.2416 61.5821L58.2416 59.302L53.5253 59.302L53.5253 61.5821Z" fill="rgb(23,25,36)" fill-rule="evenodd" />
                    </g>
                    <rect id="Rectangle-path" width="4.944164" height="0.136803" x="53.422729" y="59.940430" fill="rgb(23,25,36)" />
                </g>
                <g id="window">
                    <g id="Group">
                        <path id="Rectangle-path" d="M33.7258 59.245L41.8484 59.245L41.8484 61.6391L33.7258 61.6391L33.7258 59.245Z" fill="rgb(255,255,255)" fill-rule="nonzero" />
                        <path id="Shape" d="M33.6575 61.6961L33.6575 59.188L41.894 59.188L41.894 61.6961L33.6575 61.6961ZM33.7714 61.5821L41.78 61.5821L41.78 59.302L33.7714 59.302L33.7714 61.5821Z" fill="rgb(23,25,36)" fill-rule="evenodd" />
                    </g>
                    <rect id="Rectangle-path" width="8.236475" height="0.136803" x="33.668823" y="59.940430" fill="rgb(23,25,36)" />
                </g>
                <g id="window">
                    <g id="Group">
                        <path id="Rectangle-path" d="M14.234 59.245L22.3566 59.245L22.3566 61.6391L14.234 61.6391L14.234 59.245Z" fill="rgb(255,255,255)" fill-rule="nonzero" />
                        <path id="Shape" d="M14.177 61.6961L14.177 59.188L22.4135 59.188L22.4135 61.6961L14.177 61.6961ZM14.2909 61.5821L22.2996 61.5821L22.2996 59.302L14.2909 59.302L14.2909 61.5821Z" fill="rgb(23,25,36)" fill-rule="evenodd" />
                    </g>
                    <rect id="Rectangle-path" width="8.236479" height="0.136803" x="14.177002" y="59.940430" fill="rgb(23,25,36)" />
                </g>
                <g id="window">
                    <g id="Group">
                        <path id="Rectangle-path" d="M14.234 8.12543L22.3566 8.12543L22.3566 10.5195L14.234 10.5195L14.234 8.12543Z" fill="rgb(255,255,255)" fill-rule="nonzero" />
                        <path id="Shape" d="M14.177 10.5765L14.177 8.06842L22.4135 8.06842L22.4135 10.5765L14.177 10.5765ZM14.2909 10.4625L22.2996 10.4625L22.2996 8.18242L14.2909 8.18242L14.2909 10.4625Z" fill="rgb(23,25,36)" fill-rule="evenodd" />
                    </g>
                    <rect id="Rectangle-path" width="8.236479" height="0.136805" x="14.177002" y="9.687256" fill="rgb(23,25,36)" />
                </g>
                <g id="window">
                    <g id="Group">
                        <path id="Rectangle-path" d="M33.7258 8.12543L41.8484 8.12543L41.8484 10.5195L33.7258 10.5195L33.7258 8.12543Z" fill="rgb(255,255,255)" fill-rule="nonzero" />
                        <path id="Shape" d="M33.6575 10.5765L33.6575 8.06842L41.894 8.06842L41.894 10.5765L33.6575 10.5765ZM33.7714 10.4625L41.78 10.4625L41.78 8.18242L33.7714 8.18242L33.7714 10.4625Z" fill="rgb(23,25,36)" fill-rule="evenodd" />
                    </g>
                    <rect id="Rectangle-path" width="8.236475" height="0.136805" x="33.668823" y="9.687256" fill="rgb(23,25,36)" />
                </g>
                <g id="window">
                    <g id="Group">
                        <path id="Rectangle-path" d="M54.2999 8.12543L60.2238 8.12543L60.2238 10.5195L54.2999 10.5195L54.2999 8.12543Z" fill="rgb(255,255,255)" fill-rule="nonzero" />
                        <path id="Shape" d="M54.2429 10.5765L54.2429 8.06842L60.2807 8.06842L60.2807 10.5765L54.2429 10.5765ZM54.3568 10.4625L60.1668 10.4625L60.1668 8.18242L54.3568 8.18242L54.3568 10.4625Z" fill="rgb(23,25,36)" fill-rule="evenodd" />
                    </g>
                    <rect id="Rectangle-path" width="6.037807" height="0.136805" x="54.242920" y="9.687256" fill="rgb(23,25,36)" />
                </g>
            </g>
            <g id="compas/ black" customFrame="url(#clipPath_1)">
                <rect id="compas/ black" width="11.169231" height="6.096775" x="7.000000" y="64.903229" fill="rgb(255,255,255)" fill-opacity="0" />
                <g id="Group">
                    <g id="Group">
                        <g style="mix-blend-mode:normal">
                            <path id="Shape" d="M6.64274 3.1268C6.65642 4.86155 5.16614 6.28398 3.33612 6.28398C1.5031 6.29692 9.32324e-05 4.88654 9.32324e-05 3.15244C-0.0135601 1.41034 1.47412 0.000673955 3.30787 8.05895e-05C5.14037 -0.0122643 6.64275 1.39525 6.64274 3.1268Z" opacity="0.200000003" fill="rgb(11,23,57)" fill-opacity="0.200000003" fill-rule="nonzero" transform="matrix(0.888488,-0.458899,0.542254,0.840214,7.67383,66.8367)" />
                        </g>
                        <path id="Shape" d="M2.56701 1.70724L0 0.835029L2.55797 0L5.12491 0.859179L2.56701 1.70724ZM2.55812 0.385609L0.790339 0.855134L2.57728 1.33158L2.55812 0.385609Z" fill="rgb(255,0,0)" fill-rule="evenodd" transform="matrix(0.888488,-0.458899,0.542255,0.840214,9.49109,68.358)" />
                        <path id="Shape" d="M2.56701 1.70724L0 0.835029L2.55797 0L5.12491 0.859179L2.56701 1.70724ZM2.55812 0.385609L0.790339 0.855134L2.57728 1.33158L2.55812 0.385609Z" fill="rgb(11,23,57)" fill-rule="evenodd" transform="matrix(0.888488,-0.458899,0.542255,0.840214,9.49109,68.358)" />
                    </g>
                    <path id="С_3_" d="M7.72169 71.0411C7.58533 71.0411 7.46215 71.0147 7.35216 70.9619C7.24217 70.909 7.15598 70.8361 7.09359 70.743C7.0312 70.6498 7 70.5448 7 70.4278C7 70.3108 7.03152 70.2058 7.09455 70.1126C7.15759 70.0195 7.2441 69.9465 7.35409 69.8937C7.46408 69.8409 7.58726 69.8145 7.72362 69.8145C7.83426 69.8145 7.93524 69.8316 8.02658 69.8656C8.11792 69.8997 8.1951 69.9491 8.25814 70.0138L8.09605 70.1484C7.99828 70.0553 7.878 70.0087 7.7352 70.0087C7.64258 70.0087 7.5596 70.0266 7.48628 70.0624C7.41295 70.0982 7.3557 70.1478 7.31454 70.2114C7.27337 70.275 7.25279 70.3472 7.25279 70.4278C7.25279 70.5084 7.27337 70.5805 7.31454 70.6441C7.3557 70.7077 7.41295 70.7574 7.48628 70.7932C7.5596 70.829 7.64258 70.8469 7.7352 70.8469C7.878 70.8469 7.99828 70.7997 8.09605 70.7055L8.25814 70.8418C8.1951 70.9065 8.1176 70.9559 8.02562 70.99C7.93363 71.024 7.83233 71.0411 7.72169 71.0411Z" fill="rgb(255,0,0)" fill-rule="evenodd" />
                    <path id="С_3_" d="M7.72169 71.0411C7.58533 71.0411 7.46215 71.0147 7.35216 70.9619C7.24217 70.909 7.15598 70.8361 7.09359 70.743C7.0312 70.6498 7 70.5448 7 70.4278C7 70.3108 7.03152 70.2058 7.09455 70.1126C7.15759 70.0195 7.2441 69.9465 7.35409 69.8937C7.46408 69.8409 7.58726 69.8145 7.72362 69.8145C7.83426 69.8145 7.93524 69.8316 8.02658 69.8656C8.11792 69.8997 8.1951 69.9491 8.25814 70.0138L8.09605 70.1484C7.99828 70.0553 7.878 70.0087 7.7352 70.0087C7.64258 70.0087 7.5596 70.0266 7.48628 70.0624C7.41295 70.0982 7.3557 70.1478 7.31454 70.2114C7.27337 70.275 7.25279 70.3472 7.25279 70.4278C7.25279 70.5084 7.27337 70.5805 7.31454 70.6441C7.3557 70.7077 7.41295 70.7574 7.48628 70.7932C7.5596 70.829 7.64258 70.8469 7.7352 70.8469C7.878 70.8469 7.99828 70.7997 8.09605 70.7055L8.25814 70.8418C8.1951 70.9065 8.1176 70.9559 8.02562 70.99C7.93363 71.024 7.83233 71.0411 7.72169 71.0411Z" fill="rgb(11,23,57)" fill-rule="evenodd" />
                    <path id="Ю_3_" d="M17.4301 64.9032C17.5626 64.9032 17.6819 64.9296 17.788 64.9824C17.8941 65.0353 17.9774 65.1082 18.0379 65.2013C18.0984 65.2945 18.1286 65.3995 18.1286 65.5165C18.1286 65.6335 18.0984 65.7385 18.0379 65.8317C17.9774 65.9248 17.8941 65.9978 17.788 66.0506C17.6819 66.1034 17.5626 66.1298 17.4301 66.1298C17.3091 66.1298 17.1988 66.1076 17.0991 66.0633C16.9994 66.0191 16.9177 65.9572 16.8541 65.8777C16.7904 65.7982 16.7508 65.7079 16.7354 65.6068L16.5231 65.6068L16.5231 66.1128L16.2761 66.1128L16.2761 64.9203L16.5231 64.9203L16.5231 65.4092L16.7392 65.4092C16.7573 65.3104 16.7981 65.2226 16.8618 65.146C16.9255 65.0693 17.0065 65.0097 17.1049 64.9671C17.2033 64.9245 17.3117 64.9032 17.4301 64.9032ZM17.6578 65.8828C17.5896 65.918 17.5137 65.9356 17.4301 65.9356C17.3465 65.9356 17.2709 65.918 17.2034 65.8828C17.1358 65.8476 17.0824 65.7982 17.0432 65.7346C17.004 65.671 16.9844 65.5983 16.9844 65.5165C16.9844 65.4347 17.004 65.3621 17.0432 65.2985C17.0824 65.2349 17.1358 65.1855 17.2034 65.1502C17.2709 65.115 17.3465 65.0974 17.4301 65.0974C17.5137 65.0974 17.5896 65.115 17.6578 65.1502C17.726 65.1855 17.7794 65.2349 17.818 65.2985C17.8566 65.3621 17.8759 65.4347 17.8759 65.5165C17.8759 65.5983 17.8566 65.671 17.818 65.7346C17.7794 65.7982 17.726 65.8476 17.6578 65.8828Z" fill="rgb(255,0,0)" fill-rule="evenodd" />
                    <path id="Ю_3_" d="M17.4301 64.9032C17.5626 64.9032 17.6819 64.9296 17.788 64.9824C17.8941 65.0353 17.9774 65.1082 18.0379 65.2013C18.0984 65.2945 18.1286 65.3995 18.1286 65.5165C18.1286 65.6335 18.0984 65.7385 18.0379 65.8317C17.9774 65.9248 17.8941 65.9978 17.788 66.0506C17.6819 66.1034 17.5626 66.1298 17.4301 66.1298C17.3091 66.1298 17.1988 66.1076 17.0991 66.0633C16.9994 66.0191 16.9177 65.9572 16.8541 65.8777C16.7904 65.7982 16.7508 65.7079 16.7354 65.6068L16.5231 65.6068L16.5231 66.1128L16.2761 66.1128L16.2761 64.9203L16.5231 64.9203L16.5231 65.4092L16.7392 65.4092C16.7573 65.3104 16.7981 65.2226 16.8618 65.146C16.9255 65.0693 17.0065 65.0097 17.1049 64.9671C17.2033 64.9245 17.3117 64.9032 17.4301 64.9032ZM17.6578 65.8828C17.5896 65.918 17.5137 65.9356 17.4301 65.9356C17.3465 65.9356 17.2709 65.918 17.2034 65.8828C17.1358 65.8476 17.0824 65.7982 17.0432 65.7346C17.004 65.671 16.9844 65.5983 16.9844 65.5165C16.9844 65.4347 17.004 65.3621 17.0432 65.2985C17.0824 65.2349 17.1358 65.1855 17.2034 65.1502C17.2709 65.115 17.3465 65.0974 17.4301 65.0974C17.5137 65.0974 17.5896 65.115 17.6578 65.1502C17.726 65.1855 17.7794 65.2349 17.818 65.2985C17.8566 65.3621 17.8759 65.4347 17.8759 65.5165C17.8759 65.5983 17.8566 65.671 17.818 65.7346C17.7794 65.7982 17.726 65.8476 17.6578 65.8828Z" fill="rgb(11,23,57)" fill-rule="evenodd" />
                </g>
            </g>
            <path id="7,01" d="M60.3117 66.0391L61.2154 66.0391L61.2154 66.2118L60.7073 67.4447L60.5025 67.4447L61.0146 66.2118L60.3117 66.2118L60.3117 66.0391ZM61.4407 67.2338L61.6455 67.2338L61.4869 67.7459L61.3443 67.7459L61.4407 67.2338ZM62.4161 67.4608C62.3425 67.4608 62.2755 67.4487 62.2153 67.4246C62.1564 67.4005 62.1062 67.3624 62.0647 67.3102C62.0232 67.2566 61.9911 67.1883 61.9683 67.1053C61.9456 67.021 61.9342 66.9193 61.9342 66.8001L61.9342 66.6836C61.9342 66.5658 61.9456 66.4654 61.9683 66.3824C61.9911 66.2981 62.0232 66.2298 62.0647 66.1776C62.1075 66.1241 62.1584 66.0853 62.2173 66.0611C62.2775 66.0357 62.3438 66.023 62.4161 66.023C62.4897 66.023 62.556 66.035 62.6149 66.0591C62.6751 66.0832 62.726 66.1221 62.7675 66.1756C62.809 66.2278 62.8411 66.2961 62.8639 66.3804C62.8867 66.4634 62.898 66.5645 62.898 66.6836L62.898 66.8001C62.898 66.9179 62.8867 67.019 62.8639 67.1033C62.8411 67.1863 62.8083 67.2546 62.7655 67.3081C62.724 67.3604 62.6731 67.3992 62.6129 67.4246C62.554 67.4487 62.4884 67.4608 62.4161 67.4608ZM62.4161 67.28C62.4603 67.28 62.4998 67.2727 62.5346 67.2579C62.5707 67.2419 62.6008 67.2158 62.6249 67.1796C62.649 67.1421 62.6678 67.0926 62.6812 67.031C62.6946 66.9695 62.7012 66.8925 62.7012 66.8001L62.7012 66.6836C62.7012 66.5913 62.6946 66.515 62.6812 66.4547C62.6678 66.3932 62.6484 66.3436 62.6229 66.3061C62.5988 66.2686 62.5687 66.2425 62.5326 66.2278C62.4978 66.2118 62.4589 66.2037 62.4161 66.2037C62.3719 66.2037 62.3318 66.2118 62.2956 66.2278C62.2608 66.2425 62.2314 66.2686 62.2073 66.3061C62.1832 66.3423 62.1644 66.3911 62.151 66.4527C62.1377 66.5143 62.131 66.5913 62.131 66.6836L62.131 66.8001C62.131 66.8925 62.1377 66.9695 62.151 67.031C62.1644 67.0913 62.1832 67.1401 62.2073 67.1776C62.2327 67.2151 62.2628 67.2419 62.2976 67.2579C62.3338 67.2727 62.3733 67.28 62.4161 67.28ZM63.097 66.2419L63.3902 66.0391L63.579 66.0391L63.579 67.4447L63.3902 67.4447L63.3902 66.2479L63.097 66.4467L63.097 66.2419Z" fill="rgb(40.6894,48.8731,60.389)" fill-rule="nonzero" />
            <path id="118,11" d="M41.7389 50.1435L41.7389 52.9547L41.3414 52.9547L41.3414 50.4929L40.7068 50.4929L40.7068 50.1435L41.7389 50.1435ZM43.2806 50.1435L43.2806 52.9547L42.883 52.9547L42.883 50.4929L42.2484 50.4929L42.2484 50.1435L43.2806 50.1435ZM45.6696 51.4808C45.8302 51.5424 45.9534 51.6308 46.0391 51.7459C46.1248 51.861 46.1676 51.9989 46.1676 52.1596C46.1676 52.3282 46.1221 52.4755 46.031 52.6013C45.94 52.7245 45.8102 52.8195 45.6415 52.8865C45.4728 52.9534 45.2747 52.9869 45.0471 52.9869C44.8222 52.9869 44.6254 52.9534 44.4567 52.8865C44.2908 52.8195 44.1622 52.7245 44.0712 52.6013C43.9802 52.4755 43.9347 52.3282 43.9347 52.1596C43.9347 51.9989 43.9762 51.861 44.0592 51.7459C44.1448 51.6308 44.268 51.5424 44.4286 51.4808C44.3001 51.4193 44.2024 51.3376 44.1355 51.2359C44.0685 51.1341 44.0351 51.0136 44.0351 50.8744C44.0351 50.7191 44.0766 50.5839 44.1596 50.4688C44.2452 50.3537 44.3644 50.2653 44.517 50.2037C44.6696 50.1422 44.8463 50.1114 45.0471 50.1114C45.2506 50.1114 45.4286 50.1422 45.5812 50.2037C45.7365 50.2653 45.8557 50.3537 45.9387 50.4688C46.0244 50.5839 46.0672 50.7191 46.0672 50.8744C46.0672 51.011 46.0324 51.1314 45.9628 51.2359C45.8958 51.3376 45.7981 51.4193 45.6696 51.4808ZM45.0471 50.4367C44.857 50.4367 44.7071 50.4782 44.5973 50.5612C44.4875 50.6415 44.4327 50.7513 44.4327 50.8905C44.4327 51.0297 44.4862 51.1395 44.5933 51.2198C44.7031 51.3001 44.8543 51.3403 45.0471 51.3403C45.2426 51.3403 45.3952 51.3001 45.5049 51.2198C45.6174 51.1395 45.6736 51.0297 45.6736 50.8905C45.6736 50.7513 45.6161 50.6415 45.5009 50.5612C45.3885 50.4782 45.2372 50.4367 45.0471 50.4367ZM45.0471 52.6616C45.2693 52.6616 45.4447 52.6161 45.5732 52.525C45.7017 52.4313 45.766 52.3055 45.766 52.1475C45.766 51.9922 45.7017 51.8704 45.5732 51.782C45.4447 51.691 45.2693 51.6455 45.0471 51.6455C44.8249 51.6455 44.6509 51.691 44.525 51.782C44.3992 51.8704 44.3363 51.9922 44.3363 52.1475C44.3363 52.3055 44.3992 52.4313 44.525 52.525C44.6509 52.6161 44.8249 52.6616 45.0471 52.6616ZM46.8988 52.4286C46.9738 52.4286 47.0353 52.4554 47.0835 52.509C47.1344 52.5598 47.1598 52.6241 47.1598 52.7017C47.1598 52.7419 47.1545 52.7807 47.1438 52.8182C47.1357 52.8557 47.1183 52.9132 47.0916 52.9909L46.9028 53.5491L46.6498 53.5491L46.7984 52.9507C46.7475 52.932 46.706 52.9012 46.6739 52.8584C46.6444 52.8128 46.6297 52.7606 46.6297 52.7017C46.6297 52.6214 46.6552 52.5558 46.706 52.5049C46.7569 52.4541 46.8212 52.4286 46.8988 52.4286ZM48.4153 50.1435L48.4153 52.9547L48.0177 52.9547L48.0177 50.4929L47.3832 50.4929L47.3832 50.1435L48.4153 50.1435ZM49.957 50.1435L49.957 52.9547L49.5594 52.9547L49.5594 50.4929L48.9248 50.4929L48.9248 50.1435L49.957 50.1435Z" fill="rgb(255,0,0)" fill-rule="nonzero" />
            <path id="118,11" d="M41.7389 50.1435L41.7389 52.9547L41.3414 52.9547L41.3414 50.4929L40.7068 50.4929L40.7068 50.1435L41.7389 50.1435ZM43.2806 50.1435L43.2806 52.9547L42.883 52.9547L42.883 50.4929L42.2484 50.4929L42.2484 50.1435L43.2806 50.1435ZM45.6696 51.4808C45.8302 51.5424 45.9534 51.6308 46.0391 51.7459C46.1248 51.861 46.1676 51.9989 46.1676 52.1596C46.1676 52.3282 46.1221 52.4755 46.031 52.6013C45.94 52.7245 45.8102 52.8195 45.6415 52.8865C45.4728 52.9534 45.2747 52.9869 45.0471 52.9869C44.8222 52.9869 44.6254 52.9534 44.4567 52.8865C44.2908 52.8195 44.1622 52.7245 44.0712 52.6013C43.9802 52.4755 43.9347 52.3282 43.9347 52.1596C43.9347 51.9989 43.9762 51.861 44.0592 51.7459C44.1448 51.6308 44.268 51.5424 44.4286 51.4808C44.3001 51.4193 44.2024 51.3376 44.1355 51.2359C44.0685 51.1341 44.0351 51.0136 44.0351 50.8744C44.0351 50.7191 44.0766 50.5839 44.1596 50.4688C44.2452 50.3537 44.3644 50.2653 44.517 50.2037C44.6696 50.1422 44.8463 50.1114 45.0471 50.1114C45.2506 50.1114 45.4286 50.1422 45.5812 50.2037C45.7365 50.2653 45.8557 50.3537 45.9387 50.4688C46.0244 50.5839 46.0672 50.7191 46.0672 50.8744C46.0672 51.011 46.0324 51.1314 45.9628 51.2359C45.8958 51.3376 45.7981 51.4193 45.6696 51.4808ZM45.0471 50.4367C44.857 50.4367 44.7071 50.4782 44.5973 50.5612C44.4875 50.6415 44.4327 50.7513 44.4327 50.8905C44.4327 51.0297 44.4862 51.1395 44.5933 51.2198C44.7031 51.3001 44.8543 51.3403 45.0471 51.3403C45.2426 51.3403 45.3952 51.3001 45.5049 51.2198C45.6174 51.1395 45.6736 51.0297 45.6736 50.8905C45.6736 50.7513 45.6161 50.6415 45.5009 50.5612C45.3885 50.4782 45.2372 50.4367 45.0471 50.4367ZM45.0471 52.6616C45.2693 52.6616 45.4447 52.6161 45.5732 52.525C45.7017 52.4313 45.766 52.3055 45.766 52.1475C45.766 51.9922 45.7017 51.8704 45.5732 51.782C45.4447 51.691 45.2693 51.6455 45.0471 51.6455C44.8249 51.6455 44.6509 51.691 44.525 51.782C44.3992 51.8704 44.3363 51.9922 44.3363 52.1475C44.3363 52.3055 44.3992 52.4313 44.525 52.525C44.6509 52.6161 44.8249 52.6616 45.0471 52.6616ZM46.8988 52.4286C46.9738 52.4286 47.0353 52.4554 47.0835 52.509C47.1344 52.5598 47.1598 52.6241 47.1598 52.7017C47.1598 52.7419 47.1545 52.7807 47.1438 52.8182C47.1357 52.8557 47.1183 52.9132 47.0916 52.9909L46.9028 53.5491L46.6498 53.5491L46.7984 52.9507C46.7475 52.932 46.706 52.9012 46.6739 52.8584C46.6444 52.8128 46.6297 52.7606 46.6297 52.7017C46.6297 52.6214 46.6552 52.5558 46.706 52.5049C46.7569 52.4541 46.8212 52.4286 46.8988 52.4286ZM48.4153 50.1435L48.4153 52.9547L48.0177 52.9547L48.0177 50.4929L47.3832 50.4929L47.3832 50.1435L48.4153 50.1435ZM49.957 50.1435L49.957 52.9547L49.5594 52.9547L49.5594 50.4929L48.9248 50.4929L48.9248 50.1435L49.957 50.1435Z" fill="rgb(11,23,57)" fill-rule="nonzero" />
            <path id="3к" d="M42.4307 47.8563C42.0358 47.8563 41.7296 47.7509 41.512 47.5401C41.2945 47.3259 41.1824 47.023 41.1757 46.6314L41.8082 46.6314C41.8149 46.8624 41.8701 47.0314 41.9739 47.1385C42.0776 47.2422 42.2299 47.2941 42.4307 47.2941C42.6382 47.2941 42.7938 47.2472 42.8976 47.1535C43.0013 47.0565 43.0532 46.9276 43.0532 46.767C43.0532 46.6231 43.003 46.5043 42.9026 46.4105C42.8056 46.3168 42.66 46.27 42.4659 46.27L42.004 46.27L42.004 45.7379L42.4659 45.7379C42.6265 45.7379 42.752 45.696 42.8424 45.6124C42.9327 45.5287 42.9779 45.4199 42.9779 45.286C42.9779 45.1455 42.9311 45.0317 42.8373 44.9447C42.747 44.8577 42.6114 44.8142 42.4307 44.8142C42.0961 44.8142 41.9137 45.0016 41.8835 45.3764L41.251 45.3764C41.2577 45.025 41.3631 44.7506 41.5673 44.5531C41.7748 44.3523 42.0626 44.2519 42.4307 44.2519C42.6248 44.2519 42.7955 44.277 42.9428 44.3272C43.09 44.3741 43.2122 44.441 43.3092 44.528C43.4096 44.615 43.4849 44.7205 43.5351 44.8443C43.5853 44.9648 43.6104 45.0986 43.6104 45.2459C43.6104 45.4065 43.5753 45.5521 43.505 45.6826C43.4347 45.8132 43.326 45.9186 43.1787 45.9989C43.3494 46.0826 43.4766 46.1964 43.5602 46.3403C43.6439 46.4808 43.6857 46.6381 43.6857 46.8122C43.6857 46.9661 43.659 47.1083 43.6054 47.2389C43.5519 47.366 43.4716 47.4765 43.3645 47.5702C43.2607 47.6605 43.1302 47.7308 42.9729 47.781C42.8189 47.8312 42.6382 47.8563 42.4307 47.8563ZM45.0717 46.762L44.8207 46.762L44.8207 47.8111L44.2383 47.8111L44.2383 45.3011L44.8207 45.3011L44.8207 46.2499L45.0717 46.2499L45.6741 45.3011L46.3468 45.3011L45.5536 46.4858L46.4472 47.8111L45.7444 47.8111L45.0717 46.762Z" fill="rgb(255,0,0)" fill-rule="nonzero" />
            <path id="3к" d="M42.4307 47.8563C42.0358 47.8563 41.7296 47.7509 41.512 47.5401C41.2945 47.3259 41.1824 47.023 41.1757 46.6314L41.8082 46.6314C41.8149 46.8624 41.8701 47.0314 41.9739 47.1385C42.0776 47.2422 42.2299 47.2941 42.4307 47.2941C42.6382 47.2941 42.7938 47.2472 42.8976 47.1535C43.0013 47.0565 43.0532 46.9276 43.0532 46.767C43.0532 46.6231 43.003 46.5043 42.9026 46.4105C42.8056 46.3168 42.66 46.27 42.4659 46.27L42.004 46.27L42.004 45.7379L42.4659 45.7379C42.6265 45.7379 42.752 45.696 42.8424 45.6124C42.9327 45.5287 42.9779 45.4199 42.9779 45.286C42.9779 45.1455 42.9311 45.0317 42.8373 44.9447C42.747 44.8577 42.6114 44.8142 42.4307 44.8142C42.0961 44.8142 41.9137 45.0016 41.8835 45.3764L41.251 45.3764C41.2577 45.025 41.3631 44.7506 41.5673 44.5531C41.7748 44.3523 42.0626 44.2519 42.4307 44.2519C42.6248 44.2519 42.7955 44.277 42.9428 44.3272C43.09 44.3741 43.2122 44.441 43.3092 44.528C43.4096 44.615 43.4849 44.7205 43.5351 44.8443C43.5853 44.9648 43.6104 45.0986 43.6104 45.2459C43.6104 45.4065 43.5753 45.5521 43.505 45.6826C43.4347 45.8132 43.326 45.9186 43.1787 45.9989C43.3494 46.0826 43.4766 46.1964 43.5602 46.3403C43.6439 46.4808 43.6857 46.6381 43.6857 46.8122C43.6857 46.9661 43.659 47.1083 43.6054 47.2389C43.5519 47.366 43.4716 47.4765 43.3645 47.5702C43.2607 47.6605 43.1302 47.7308 42.9729 47.781C42.8189 47.8312 42.6382 47.8563 42.4307 47.8563ZM45.0717 46.762L44.8207 46.762L44.8207 47.8111L44.2383 47.8111L44.2383 45.3011L44.8207 45.3011L44.8207 46.2499L45.0717 46.2499L45.6741 45.3011L46.3468 45.3011L45.5536 46.4858L46.4472 47.8111L45.7444 47.8111L45.0717 46.762Z" fill="rgb(11,23,57)" fill-rule="nonzero" />
            <g id="furniture">
                <path id="Rectangle" d="M70.4819 33.0666L58.6868 33.0666L58.6868 35.3212L70.4819 35.3212L70.4819 33.0666ZM58.8193 35.1886L58.8193 33.1992L70.3494 33.1992L70.3494 35.1886L58.8193 35.1886Z" fill="rgb(40.6894,48.8731,60.389)" fill-rule="evenodd" />
                <path id="Line 3" d="M59.8795 34.2602L59.8795 34.1276L69.4217 34.1276L69.4217 34.2602L59.8795 34.2602Z" fill="rgb(40.6894,48.8731,60.389)" fill-rule="nonzero" />
                <path id="Line 4" d="M60.2771 33.5971L60.4096 33.5971L60.4096 34.9233L60.2771 34.9233L60.2771 33.5971Z" fill="rgb(40.6894,48.8731,60.389)" fill-rule="nonzero" />
                <path id="Line 4 Copy" d="M60.8073 33.5971L60.9398 33.5971L60.9398 34.9233L60.8073 34.9233L60.8073 33.5971Z" fill="rgb(40.6894,48.8731,60.389)" fill-rule="nonzero" />
                <path id="Line 4 Copy 2" d="M61.4698 33.5971L61.6024 33.5971L61.6024 34.9233L61.4698 34.9233L61.4698 33.5971Z" fill="rgb(40.6894,48.8731,60.389)" fill-rule="nonzero" />
                <path id="Line 4 Copy 4" d="M63.0603 33.5971L63.1928 33.5971L63.1928 34.9233L63.0603 34.9233L63.0603 33.5971Z" fill="rgb(40.6894,48.8731,60.389)" fill-rule="nonzero" />
                <path id="Line 4 Copy 5" d="M63.9879 33.5971L64.1204 33.5971L64.1204 34.9233L63.9879 34.9233L63.9879 33.5971Z" fill="rgb(40.6894,48.8731,60.389)" fill-rule="nonzero" />
                <path id="Line 4 Copy 9" d="M66.9036 33.5971L67.0361 33.5971L67.0361 34.9233L66.9036 34.9233L66.9036 33.5971Z" fill="rgb(40.6894,48.8731,60.389)" fill-rule="nonzero" />
                <path id="Line 4 Copy 6" d="M64.5181 33.5971L64.6506 33.5971L64.6506 34.9233L64.5181 34.9233L64.5181 33.5971Z" fill="rgb(40.6894,48.8731,60.389)" fill-rule="nonzero" />
                <path id="Line 4 Copy 10" d="M67.4337 33.5971L67.5662 33.5971L67.5662 34.9233L67.4337 34.9233L67.4337 33.5971Z" fill="rgb(40.6894,48.8731,60.389)" fill-rule="nonzero" />
                <path id="Line 4 Copy 7" d="M65.1807 33.5971L65.3132 33.5971L65.3132 34.9233L65.1807 34.9233L65.1807 33.5971Z" fill="rgb(40.6894,48.8731,60.389)" fill-rule="nonzero" />
                <path id="Line 4 Copy 11" d="M68.0964 33.5971L68.229 33.5971L68.229 34.9233L68.0964 34.9233L68.0964 33.5971Z" fill="rgb(40.6894,48.8731,60.389)" fill-rule="nonzero" />
                <path id="Line 4 Copy 12" d="M68.759 33.5971L68.8916 33.5971L68.8916 34.9233L68.759 34.9233L68.759 33.5971Z" fill="rgb(40.6894,48.8731,60.389)" fill-rule="nonzero" />
                <path id="Line 4 Copy 3" d="M62.1841 33.6826L62.3122 33.6486L62.6621 34.9705L62.534 35.0044L62.1841 33.6826Z" fill="rgb(40.6894,48.8731,60.389)" fill-rule="nonzero" />
                <path id="Line 4 Copy 8" d="M0 0.0339626L0.128111 0L0.478024 1.32185L0.349913 1.35581L0 0.0339626Z" fill="rgb(40.6894,48.8731,60.389)" fill-rule="nonzero" transform="matrix(-1,0,0,1,66.3729,33.6486)" />
                <path id="Rectangle" d="M11.8038 0L0 0L0 2.25301L11.8038 2.25301L11.8038 0ZM11.6712 2.12048L0.132621 2.12048L0.132621 0.132528L11.6712 0.132528L11.6712 2.12048Z" fill="rgb(40.6894,48.8731,60.389)" fill-rule="evenodd" transform="matrix(6.11874e-17,-1,1,6.12773e-17,28.2749,48.0315)" />
                <path id="Line 3" d="M0 0.13253L0 0L9.54916 0L9.54916 0.13253L0 0.13253Z" fill="rgb(40.6894,48.8731,60.389)" fill-rule="nonzero" transform="matrix(6.11875e-17,-1,1,6.12772e-17,29.3352,46.8378)" />
                <path id="Line 4" d="M0 0L0.132622 0L0.132622 1.3253L0 1.3253L0 0Z" fill="rgb(40.6894,48.8731,60.389)" fill-rule="nonzero" transform="matrix(6.11902e-17,-1,1,6.12746e-17,28.8051,46.4399)" />
                <path id="Line 4 Copy" d="M0 0L0.132622 0L0.132622 1.3253L0 1.3253L0 0Z" fill="rgb(40.6894,48.8731,60.389)" fill-rule="nonzero" transform="matrix(6.11902e-17,-1,1,6.12746e-17,28.8051,45.9094)" />
                <path id="Line 4 Copy 2" d="M0 0L0.132629 0L0.132629 1.3253L0 1.3253L0 0Z" fill="rgb(40.6894,48.8731,60.389)" fill-rule="nonzero" transform="matrix(6.11866e-17,-1,1,6.12781e-17,28.8051,45.2463)" />
                <path id="Line 4 Copy 4" d="M0 0L0.132626 0L0.132626 1.3253L0 1.3253L0 0Z" fill="rgb(40.6894,48.8731,60.389)" fill-rule="nonzero" transform="matrix(6.11884e-17,-1,1,6.12763e-17,28.8051,43.6548)" />
                <path id="Line 4 Copy 5" d="M0 0L0.132629 0L0.132629 1.3253L0 1.3253L0 0Z" fill="rgb(40.6894,48.8731,60.389)" fill-rule="nonzero" transform="matrix(6.11866e-17,-1,1,6.12781e-17,28.8051,42.7264)" />
                <path id="Line 4 Copy 9" d="M0 0L0.132627 0L0.132627 1.3253L0 1.3253L0 0Z" fill="rgb(40.6894,48.8731,60.389)" fill-rule="nonzero" transform="matrix(6.11875e-17,-1,1,6.12772e-17,28.8051,39.8086)" />
                <path id="Line 4 Copy 6" d="M0 0L0.132626 0L0.132626 1.3253L0 1.3253L0 0Z" fill="rgb(40.6894,48.8731,60.389)" fill-rule="nonzero" transform="matrix(6.11884e-17,-1,1,6.12763e-17,28.8051,42.1959)" />
                <path id="Line 4 Copy 10" d="M0 0L0.132629 0L0.132629 1.3253L0 1.3253L0 0Z" fill="rgb(40.6894,48.8731,60.389)" fill-rule="nonzero" transform="matrix(6.11866e-17,-1,1,6.12781e-17,28.8051,39.2781)" />
                <path id="Line 4 Copy 7" d="M0 0L0.132626 0L0.132626 1.3253L0 1.3253L0 0Z" fill="rgb(40.6894,48.8731,60.389)" fill-rule="nonzero" transform="matrix(6.11884e-17,-1,1,6.12763e-17,28.8051,41.5327)" />
                <path id="Line 4 Copy 11" d="M0 0L0.132629 0L0.132629 1.3253L0 1.3253L0 0Z" fill="rgb(40.6894,48.8731,60.389)" fill-rule="nonzero" transform="matrix(6.11866e-17,-1,1,6.12781e-17,28.8051,38.6149)" />
                <path id="Line 4 Copy 12" d="M0 0L0.132627 0L0.132627 1.3253L0 1.3253L0 0Z" fill="rgb(40.6894,48.8731,60.389)" fill-rule="nonzero" transform="matrix(6.11875e-17,-1,1,6.12772e-17,28.8051,37.9518)" />
                <path id="Line 4 Copy 3" d="M0 0.0339377L0.128205 0L0.478374 1.32088L0.35017 1.35482L0 0.0339377Z" fill="rgb(40.6894,48.8731,60.389)" fill-rule="nonzero" transform="matrix(6.11876e-17,-1,1,6.12772e-17,28.8566,44.5316)" />
                <path id="Line 4 Copy 8" d="M0 0.0339378L0.128206 0L0.478378 1.32089L0.350172 1.35482L0 0.0339378Z" fill="rgb(40.6894,48.8731,60.389)" fill-rule="nonzero" transform="matrix(-6.11872e-17,-1,-1,6.12776e-17,30.2114,40.8181)" />
                <path id="Rectangle" d="M7.16188 0L0 0L0 2.25301L7.16188 2.25301L7.16188 0ZM0.132627 2.12048L0.132627 0.13253L7.02925 0.13253L7.02925 2.12048L0.132627 2.12048Z" fill="rgb(40.6894,48.8731,60.389)" fill-rule="evenodd" transform="matrix(6.11875e-17,-1,1,6.12773e-17,30.3253,26.8331)" />
                <path id="Line 3" d="M0 0.13253L0 0L5.8356 0L5.8356 0.13253L0 0.13253Z" fill="rgb(40.6894,48.8731,60.389)" fill-rule="nonzero" transform="matrix(6.11875e-17,-1,1,6.12772e-17,31.3855,26.3026)" />
                <path id="Line 4" d="M0 0L0.132629 0L0.132629 1.3253L0 1.3253L0 0Z" fill="rgb(40.6894,48.8731,60.389)" fill-rule="nonzero" transform="matrix(6.11866e-17,-1,1,6.12782e-17,30.8555,25.9047)" />
                <path id="Line 4 Copy" d="M0 0L0.132629 0L0.132629 1.3253L0 1.3253L0 0Z" fill="rgb(40.6894,48.8731,60.389)" fill-rule="nonzero" transform="matrix(6.11866e-17,-1,1,6.12782e-17,30.8555,25.3742)" />
                <path id="Line 4 Copy 2" d="M0 0L0.132627 0L0.132627 1.3253L0 1.3253L0 0Z" fill="rgb(40.6894,48.8731,60.389)" fill-rule="nonzero" transform="matrix(6.11874e-17,-1,1,6.12773e-17,30.8555,24.7111)" />
                <path id="Line 4 Copy 4" d="M0 0L0.132627 0L0.132627 1.3253L0 1.3253L0 0Z" fill="rgb(40.6894,48.8731,60.389)" fill-rule="nonzero" transform="matrix(6.11874e-17,-1,1,6.12773e-17,30.8555,23.1195)" />
                <path id="Line 4 Copy 5" d="M0 0L0.132627 0L0.132627 1.3253L0 1.3253L0 0Z" fill="rgb(40.6894,48.8731,60.389)" fill-rule="nonzero" transform="matrix(6.11874e-17,-1,1,6.12773e-17,30.8555,22.1911)" />
                <path id="Line 4 Copy 6" d="M0 0L0.132627 0L0.132627 1.3253L0 1.3253L0 0Z" fill="rgb(40.6894,48.8731,60.389)" fill-rule="nonzero" transform="matrix(6.11874e-17,-1,1,6.12773e-17,30.8555,21.6606)" />
                <path id="Line 4 Copy 7" d="M0 0L0.132627 0L0.132627 1.3253L0 1.3253L0 0Z" fill="rgb(40.6894,48.8731,60.389)" fill-rule="nonzero" transform="matrix(6.11874e-17,-1,1,6.12773e-17,30.8555,20.9975)" />
                <path id="Line 4 Copy 3" d="M0 0.0339378L0.128205 0L0.478375 1.32089L0.35017 1.35482L0 0.0339378Z" fill="rgb(40.6894,48.8731,60.389)" fill-rule="nonzero" transform="matrix(6.11875e-17,-1,1,6.12772e-17,30.907,23.9964)" />
                <path id="Rectangle" d="M7.15663 0L0 0L0 2.25467L7.15663 2.25467L7.15663 0ZM0.13253 2.12204L0.13253 0.132627L7.0241 0.132627L7.0241 2.12204L0.13253 2.12204Z" fill="rgb(40.6894,48.8731,60.389)" fill-rule="evenodd" transform="matrix(-1,-1.22555e-16,1.22375e-16,-1,16.6747,26.8331)" />
                <path id="Line 3" d="M0 0.132627L0 0L5.83133 0L5.83133 0.132627L0 0.132627Z" fill="rgb(40.6894,48.8731,60.389)" fill-rule="nonzero" transform="matrix(-1,-1.22555e-16,1.22375e-16,-1,16.1445,25.7721)" />
                <path id="Line 4" d="M0 0L0.132529 0L0.132529 1.32627L0 1.32627L0 0Z" fill="rgb(40.6894,48.8731,60.389)" fill-rule="nonzero" transform="matrix(-1,-1.22555e-16,1.22374e-16,-1,15.7469,26.3026)" />
                <path id="Line 4 Copy" d="M0 0L0.132529 0L0.132529 1.32627L0 1.32627L0 0Z" fill="rgb(40.6894,48.8731,60.389)" fill-rule="nonzero" transform="matrix(-1,-1.22555e-16,1.22374e-16,-1,15.2169,26.3026)" />
                <path id="Line 4 Copy 2" d="M0 0L0.13253 0L0.13253 1.32627L0 1.32627L0 0Z" fill="rgb(40.6894,48.8731,60.389)" fill-rule="nonzero" transform="matrix(-1,-1.22554e-16,1.22375e-16,-1,14.5542,26.3026)" />
                <path id="Line 4 Copy 4" d="M0 0L0.13253 0L0.13253 1.32627L0 1.32627L0 0Z" fill="rgb(40.6894,48.8731,60.389)" fill-rule="nonzero" transform="matrix(-1,-1.22554e-16,1.22375e-16,-1,12.9639,26.3026)" />
                <path id="Line 4 Copy 5" d="M0 0L0.13253 0L0.13253 1.32627L0 1.32627L0 0Z" fill="rgb(40.6894,48.8731,60.389)" fill-rule="nonzero" transform="matrix(-1,-1.22555e-16,1.22375e-16,-1,12.0361,26.3026)" />
                <path id="Line 4 Copy 6" d="M0 0L0.132531 0L0.132531 1.32627L0 1.32627L0 0Z" fill="rgb(40.6894,48.8731,60.389)" fill-rule="nonzero" transform="matrix(-1,-1.22554e-16,1.22375e-16,-1,11.506,26.3026)" />
                <path id="Line 4 Copy 7" d="M0 0L0.13253 0L0.13253 1.32627L0 1.32627L0 0Z" fill="rgb(40.6894,48.8731,60.389)" fill-rule="nonzero" transform="matrix(-1,-1.22555e-16,1.22375e-16,-1,10.8434,26.3026)" />
                <path id="Line 4 Copy 3" d="M0 0.0339626L0.128111 0L0.478024 1.32185L0.349913 1.35582L0 0.0339626Z" fill="rgb(40.6894,48.8731,60.389)" fill-rule="nonzero" transform="matrix(-1,-1.22555e-16,1.22375e-16,-1,13.8401,26.251)" />
                <path id="Rectangle" d="M7.68674 0L0 0L0 2.25466L7.68674 2.25466L7.68674 0ZM0.132526 2.12204L0.132526 0.132627L7.55422 0.132627L7.55422 2.12204L0.132526 2.12204Z" fill="rgb(40.6894,48.8731,60.389)" fill-rule="evenodd" transform="matrix(-1,-1.22554e-16,1.22375e-16,-1,70.6145,12.7746)" />
                <path id="Line 3" d="M0 0.132627L0 0L5.83133 0L5.83133 0.132627L0 0.132627Z" fill="rgb(40.6894,48.8731,60.389)" fill-rule="nonzero" transform="matrix(-1,-1.22554e-16,1.22375e-16,-1,69.5542,11.7136)" />
                <path id="Line 4" d="M0 0L0.132526 0L0.132526 1.32627L0 1.32627L0 0Z" fill="rgb(40.6894,48.8731,60.389)" fill-rule="nonzero" transform="matrix(-1,-1.22558e-16,1.22372e-16,-1,69.1566,12.2441)" />
                <path id="Line 4 Copy" d="M0 0L0.13253 0L0.13253 1.32627L0 1.32627L0 0Z" fill="rgb(40.6894,48.8731,60.389)" fill-rule="nonzero" transform="matrix(-1,-1.22554e-16,1.22375e-16,-1,68.6265,12.2441)" />
                <path id="Line 4 Copy 2" d="M0 0L0.13253 0L0.13253 1.32627L0 1.32627L0 0Z" fill="rgb(40.6894,48.8731,60.389)" fill-rule="nonzero" transform="matrix(-1,-1.22554e-16,1.22375e-16,-1,67.9639,12.2441)" />
                <path id="Line 4 Copy 4" d="M0 0L0.132526 0L0.132526 1.32627L0 1.32627L0 0Z" fill="rgb(40.6894,48.8731,60.389)" fill-rule="nonzero" transform="matrix(-1,-1.22558e-16,1.22372e-16,-1,66.3735,12.2441)" />
                <path id="Line 4 Copy 5" d="M0 0L0.13253 0L0.13253 1.32627L0 1.32627L0 0Z" fill="rgb(40.6894,48.8731,60.389)" fill-rule="nonzero" transform="matrix(-1,-1.22554e-16,1.22375e-16,-1,65.4458,12.2441)" />
                <path id="Line 4 Copy 6" d="M0 0L0.13253 0L0.13253 1.32627L0 1.32627L0 0Z" fill="rgb(40.6894,48.8731,60.389)" fill-rule="nonzero" transform="matrix(-1,-1.22554e-16,1.22375e-16,-1,64.9156,12.2441)" />
                <path id="Line 4 Copy 7" d="M0 0L0.13253 0L0.13253 1.32627L0 1.32627L0 0Z" fill="rgb(40.6894,48.8731,60.389)" fill-rule="nonzero" transform="matrix(-1,-1.22554e-16,1.22375e-16,-1,64.2531,12.2441)" />
                <path id="Line 4 Copy 3" d="M0 0.0339626L0.128113 0L0.478031 1.32185L0.349918 1.35582L0 0.0339626Z" fill="rgb(40.6894,48.8731,60.389)" fill-rule="nonzero" transform="matrix(-1,-1.22553e-16,1.22377e-16,-1,67.2498,12.1925)" />
                <path id="Rectangle" d="M6.44707 0L0 0L0 2.25301L6.44707 2.25301L6.44707 0ZM6.31444 2.12048L0.132627 2.12048L0.132627 0.13253L6.31444 0.13253L6.31444 2.12048Z" fill="rgb(40.6894,48.8731,60.389)" fill-rule="evenodd" transform="matrix(-1.83562e-16,1,-1,-1.83832e-16,70.7502,12.642)" />
                <path id="Line 3" d="M0 0.132534L0 0L4.91235 0L4.91235 0.132534L0 0.132534Z" fill="rgb(40.6894,48.8731,60.389)" fill-rule="nonzero" transform="matrix(-1.83568e-16,1,-1,-1.83826e-16,69.6899,13.5205)" />
                <path id="Line 4" d="M0 0L0.132627 0L0.132627 1.3253L0 1.3253L0 0Z" fill="rgb(40.6894,48.8731,60.389)" fill-rule="nonzero" transform="matrix(-1.83562e-16,1,-1,-1.83832e-16,70.2201,13.8539)" />
                <path id="Line 4 Copy" d="M0 0L0.132627 0L0.132627 1.3253L0 1.3253L0 0Z" fill="rgb(40.6894,48.8731,60.389)" fill-rule="nonzero" transform="matrix(-1.83562e-16,1,-1,-1.83832e-16,70.2201,14.2986)" />
                <path id="Line 4 Copy 2" d="M0 0L0.132627 0L0.132627 1.3253L0 1.3253L0 0Z" fill="rgb(40.6894,48.8731,60.389)" fill-rule="nonzero" transform="matrix(-1.83562e-16,1,-1,-1.83832e-16,70.2201,14.8544)" />
                <path id="Line 4 Copy 4" d="M0 0L0.132627 0L0.132627 1.3253L0 1.3253L0 0Z" fill="rgb(40.6894,48.8731,60.389)" fill-rule="nonzero" transform="matrix(-1.83562e-16,1,-1,-1.83832e-16,70.2201,16.1882)" />
                <path id="Line 4 Copy 5" d="M0 0L0.132627 0L0.132627 1.3253L0 1.3253L0 0Z" fill="rgb(40.6894,48.8731,60.389)" fill-rule="nonzero" transform="matrix(-1.83562e-16,1,-1,-1.83832e-16,70.2201,16.9663)" />
                <path id="Line 4 Copy 6" d="M0 0L0.132627 0L0.132627 1.3253L0 1.3253L0 0Z" fill="rgb(40.6894,48.8731,60.389)" fill-rule="nonzero" transform="matrix(-1.83562e-16,1,-1,-1.83832e-16,70.2201,17.4109)" />
                <path id="Line 4 Copy 7" d="M0 0L0.132627 0L0.132627 1.3253L0 1.3253L0 0Z" fill="rgb(40.6894,48.8731,60.389)" fill-rule="nonzero" transform="matrix(-1.83562e-16,1,-1,-1.83832e-16,70.2201,17.9667)" />
                <path id="Line 4 Copy 3" d="M0 0.0287253L0.129474 0L0.423237 1.32216L0.293763 1.35088L0 0.0287253Z" fill="rgb(40.6894,48.8731,60.389)" fill-rule="nonzero" transform="matrix(-1.83563e-16,1,-1,-1.83831e-16,70.1666,15.4529)" />
                <path id="Rectangle 8" d="M62.7951 20.2017L59.2168 20.2017L59.2168 22.0585L62.7951 22.0585L62.7951 20.2017ZM59.3493 21.9259L59.3493 20.3343L62.6626 20.3343L62.6626 21.9259L59.3493 21.9259Z" fill="rgb(40.6894,48.8731,60.389)" fill-rule="evenodd" />
                <path id="Rectangle 8 Copy 9" d="M51.6627 36.9128L41.8555 36.9128L41.8555 38.6369L51.6627 38.6369L51.6627 36.9128ZM51.5302 38.5043L41.988 38.5043L41.988 37.0454L51.5302 37.0454L51.5302 38.5043Z" fill="rgb(40.6894,48.8731,60.389)" fill-rule="evenodd" />
                <path id="Rectangle 8 Copy 10" d="M50.735 37.4433L42.6506 37.4433L42.6506 38.1064L50.735 38.1064L50.735 37.4433ZM50.6024 37.9738L42.7832 37.9738L42.7832 37.5759L50.6024 37.5759L50.6024 37.9738Z" fill="rgb(40.6894,48.8731,60.389)" fill-rule="evenodd" />
                <path id="Rectangle 8 Copy" d="M3.57955 0L0.000211729 0.000248795L0 3.0497L3.57934 3.04945L3.57955 0ZM3.44678 2.91688L0.13258 2.91711L0.132773 0.132829L3.44697 0.132599L3.44678 2.91688Z" fill="rgb(40.6894,48.8731,60.389)" fill-rule="evenodd" transform="matrix(0.913435,-0.406985,0.406488,0.913656,34.9062,38.9045)" />
                <path id="Rectangle 8 Copy 2" d="M3.57955 0L0.000211729 0.000248795L0 3.0497L3.57934 3.04945L3.57955 0ZM3.44678 2.91688L0.13258 2.91711L0.132773 0.132829L3.44697 0.132599L3.44678 2.91688Z" fill="rgb(40.6894,48.8731,60.389)" fill-rule="evenodd" transform="matrix(0.913435,-0.406985,0.406488,0.913656,34.9062,38.9045)" />
                <path id="Rectangle 8 Copy 4" d="M4.90508 0L0.000203097 0.000327042L0 3.04967L4.90488 3.04934L4.90508 0ZM4.77232 2.91677L0.132579 2.91707L0.132763 0.132901L4.7725 0.132595L4.77232 2.91677Z" fill="rgb(40.6894,48.8731,60.389)" fill-rule="evenodd" transform="matrix(0.913435,-0.406985,0.406488,0.913656,34.3009,39.1743)" />
                <path id="Rectangle 8 Copy 3" d="M3.57909 0L5.47555e-05 0.000184981L0 1.06074L3.57903 1.06055L3.57909 0ZM3.44647 0.927993L0.132587 0.928145L0.132624 0.132748L3.4465 0.132597L3.44647 0.927993Z" fill="rgb(40.6894,48.8731,60.389)" fill-rule="evenodd" transform="matrix(0.913434,-0.406986,0.406487,0.913656,34.9065,38.9044)" />
                <path id="Rectangle 8 Copy" d="M3.57831 0L0 0L0 3.05042L3.57831 3.05042L3.57831 0ZM0.132526 2.91779L0.132526 0.132621L3.44578 0.132621L3.44578 2.91779L0.132526 2.91779Z" fill="rgb(40.6894,48.8731,60.389)" fill-rule="evenodd" transform="matrix(-1,-1.22554e-16,1.22375e-16,-1,46.0964,58.1331)" />
                <path id="Rectangle 8 Copy 2" d="M3.57831 0L0 0L0 3.05042L3.57831 3.05042L3.57831 0ZM0.132526 2.91779L0.132526 0.132621L3.44578 0.132621L3.44578 2.91779L0.132526 2.91779Z" fill="rgb(40.6894,48.8731,60.389)" fill-rule="evenodd" transform="matrix(-1,-1.22554e-16,1.22375e-16,-1,46.0964,58.1331)" />
                <path id="Rectangle 8 Copy 4" d="M4.90361 0L0 0L0 3.05042L4.90361 3.05042L4.90361 0ZM0.132526 2.91779L0.132526 0.132621L4.77108 0.132621L4.77108 2.91779L0.132526 2.91779Z" fill="rgb(40.6894,48.8731,60.389)" fill-rule="evenodd" transform="matrix(-1,-1.22554e-16,1.22375e-16,-1,46.759,58.1331)" />
                <path id="Rectangle 8 Copy 3" d="M3.57831 0L0 0L0 1.06102L3.57831 1.06102L3.57831 0ZM0.132526 0.92839L0.132526 0.132621L3.44578 0.132621L3.44578 0.92839L0.132526 0.92839Z" fill="rgb(40.6894,48.8731,60.389)" fill-rule="evenodd" transform="matrix(-1,-1.22554e-16,1.22375e-16,-1,46.0964,58.1331)" />
                <path id="Rectangle 8 Copy" d="M3.58093 0L0 0L0 3.04819L3.58093 3.04819L3.58093 0ZM0.132621 2.91566L0.132621 0.13253L3.4483 0.13253L3.4483 2.91566L0.132621 2.91566Z" fill="rgb(40.6894,48.8731,60.389)" fill-rule="evenodd" transform="matrix(6.11876e-17,-1,1,6.12771e-17,33.241,55.0827)" />
                <path id="Rectangle 8 Copy 7" d="M3.58094 0L0 0L0 3.04819L3.58094 3.04819L3.58094 0ZM0.132628 2.91566L0.132628 0.13253L3.44831 0.13253L3.44831 2.91566L0.132628 2.91566Z" fill="rgb(40.6894,48.8731,60.389)" fill-rule="evenodd" transform="matrix(6.11875e-17,-1,1,6.12772e-17,33.241,51.6344)" />
                <path id="Rectangle 8 Copy 8" d="M3.58094 0L0 0L0 3.04819L3.58094 3.04819L3.58094 0ZM0.132625 2.91566L0.132625 0.13253L3.44831 0.13253L3.44831 2.91566L0.132625 2.91566Z" fill="rgb(40.6894,48.8731,60.389)" fill-rule="evenodd" transform="matrix(6.11875e-17,-1,1,6.12772e-17,33.241,48.1861)" />
                <path id="Rectangle 8 Copy 2" d="M10.4776 0L0 0L0 3.04819L10.4776 3.04819L10.4776 0ZM0.132621 2.91566L0.132621 0.13253L10.3449 0.13253L10.3449 2.91566L0.132621 2.91566Z" fill="rgb(40.6894,48.8731,60.389)" fill-rule="evenodd" transform="matrix(6.11875e-17,-1,1,6.12772e-17,33.241,55.0827)" />
                <path id="Rectangle 8 Copy 4" d="M11.8038 0L0 0L0 3.04819L11.8038 3.04819L11.8038 0ZM0.132621 2.91566L0.132621 0.13253L11.6712 0.13253L11.6712 2.91566L0.132621 2.91566Z" fill="rgb(40.6894,48.8731,60.389)" fill-rule="evenodd" transform="matrix(6.11875e-17,-1,1,6.12772e-17,33.241,55.7458)" />
                <path id="Rectangle 8 Copy 3" d="M3.58093 0L0 0L0 1.06024L3.58093 1.06024L3.58093 0ZM0.132621 0.92771L0.132621 0.13253L3.4483 0.13253L3.4483 0.92771L0.132621 0.92771Z" fill="rgb(40.6894,48.8731,60.389)" fill-rule="evenodd" transform="matrix(6.11876e-17,-1,1,6.12772e-17,33.241,55.0827)" />
                <path id="Rectangle 8 Copy 5" d="M3.58094 0L0 0L0 1.06024L3.58094 1.06024L3.58094 0ZM0.132628 0.92771L0.132628 0.13253L3.44831 0.13253L3.44831 0.92771L0.132628 0.92771Z" fill="rgb(40.6894,48.8731,60.389)" fill-rule="evenodd" transform="matrix(6.11874e-17,-1,1,6.12773e-17,33.241,51.6344)" />
                <path id="Rectangle 8 Copy 6" d="M3.58094 0L0 0L0 1.06024L3.58094 1.06024L3.58094 0ZM0.132625 0.92771L0.132625 0.13253L3.44831 0.13253L3.44831 0.92771L0.132625 0.92771Z" fill="rgb(40.6894,48.8731,60.389)" fill-rule="evenodd" transform="matrix(6.11874e-17,-1,1,6.12773e-17,33.241,48.1861)" />
                <path id="Oval 4" d="M55.7048 52.0986C55.7048 53.7833 57.0696 55.149 58.753 55.149C60.4365 55.149 61.8012 53.7833 61.8012 52.0986C61.8012 50.4139 60.4365 49.0482 58.753 49.0482C57.0696 49.0482 55.7048 50.4139 55.7048 52.0986ZM61.6687 52.0986C61.6687 53.71 60.3633 55.0164 58.753 55.0164C57.1427 55.0164 55.8374 53.71 55.8374 52.0986C55.8374 50.4871 57.1427 49.1808 58.753 49.1808C60.3633 49.1808 61.6687 50.4871 61.6687 52.0986Z" fill="rgb(40.6894,48.8731,60.389)" fill-rule="evenodd" />
                <path id="Rectangle 9" d="M2.12126 0L0 0L0 1.8561L2.12126 1.8561L2.12126 0ZM1.98867 1.72354L0.132566 1.72354L0.132566 0.132597L1.98867 0.132598L1.98867 1.72354Z" fill="rgb(40.6894,48.8731,60.389)" fill-rule="evenodd" transform="matrix(0.719085,0.694922,-0.694394,0.719595,61.566,46.9133)" />
                <path id="Rectangle 9 Copy 4" d="M2.12126 0L0 0L0 1.72352L1.98865 1.72352L1.98865 1.72355L1.98868 1.72352L2.12126 1.72352L2.12126 0ZM1.98868 1.72352L2.12123 1.59097L1.98865 1.59097L1.98865 1.72352L1.98868 1.72352ZM0.132564 1.59095L1.98866 1.59095L1.98866 0.132591L0.132564 0.132591L0.132564 1.59095Z" fill="rgb(40.6894,48.8731,60.389)" fill-rule="evenodd" transform="matrix(0.719086,-0.694921,-0.694395,-0.719594,61.739,56.6034)" />
                <path id="Rectangle 9 Copy" d="M2.12204 0L0 0L0 1.72289L2.12204 1.72289L2.12204 0ZM0.13263 1.59036L0.13263 0.13253L1.98941 0.13253L1.98941 1.59036L0.13263 1.59036Z" fill="rgb(40.6894,48.8731,60.389)" fill-rule="evenodd" transform="matrix(-1.83562e-16,1,-1,-1.83832e-16,63.9879,50.8386)" />
                <path id="Rectangle 9 Copy 3" d="M2.12138 0.000128986L0 0L0.000113852 1.87062L2.1215 1.87075L2.12138 0.000128986ZM1.98891 1.73816L0.132693 1.73805L0.132597 0.132576L1.98881 0.132687L1.98891 1.73816Z" fill="rgb(40.6894,48.8731,60.389)" fill-rule="evenodd" transform="matrix(-0.438112,-0.89892,0.898668,-0.43863,54.0498,55.423)" />
                <path id="Rectangle 9 Copy 6" d="M2.12204 0L0 0L0 1.87L2.12204 1.87L2.12204 0ZM1.98941 1.73747L0.132626 1.73747L0.132626 0.132528L1.98941 0.132528L1.98941 1.73747Z" fill="rgb(40.6894,48.8731,60.389)" fill-rule="evenodd" transform="matrix(6.11875e-17,-1,1,6.12772e-17,33.506,17.9471)" />
                <path id="Rectangle 9 Copy 7" d="M2.12204 0L0 0L0 1.87L2.12204 1.87L2.12204 0ZM1.98941 1.73747L0.132627 1.73747L0.132627 0.132528L1.98941 0.132528L1.98941 1.73747Z" fill="rgb(40.6894,48.8731,60.389)" fill-rule="evenodd" transform="matrix(6.11875e-17,-1,1,6.12772e-17,33.506,14.2335)" />
                <path id="Rectangle 9 Copy 2" d="M2.12067 0.000153631L0 0L0.000115061 1.59131L2.12079 1.59146L2.12067 0.000153631ZM0.132647 1.45871L0.132551 0.132616L1.98814 0.13275L1.98824 1.45884L0.132647 1.45871Z" fill="rgb(40.6894,48.8731,60.389)" fill-rule="evenodd" transform="matrix(-0.990254,-0.139273,0.139073,-0.990282,59.0961,57.4773)" />
                <path id="Rectangle 10 Copy 5" d="M12.6988 57.0721L9.51807 57.0721L9.51807 59.3268L12.6988 59.3268L12.6988 57.0721ZM9.6506 59.1941L9.6506 57.2047L12.5663 57.2047L12.5663 59.1941L9.6506 59.1941Z" fill="rgb(40.6894,48.8731,60.389)" fill-rule="evenodd" />
                <path id="Rectangle 10 Copy 9" d="M5.96823 0L0 0L0 2.25301L5.96823 2.25301L5.96823 0ZM0.132627 2.12049L0.132627 0.132534L5.8356 0.132534L5.8356 2.12049L0.132627 2.12049Z" fill="rgb(40.6894,48.8731,60.389)" fill-rule="evenodd" transform="matrix(6.11875e-17,-1,1,6.12772e-17,48.4819,21.6606)" />
                <path id="Rectangle 10 Copy 7" d="M12.6988 10.5199L9.51807 10.5199L9.51807 12.7746L12.6988 12.7746L12.6988 10.5199ZM9.6506 12.642L9.6506 10.6526L12.5663 10.6526L12.5663 12.642L9.6506 12.642Z" fill="rgb(40.6894,48.8731,60.389)" fill-rule="evenodd" />
                <path id="Rectangle 10 Copy 6" d="M30.5904 57.0721L23.6989 57.0721L23.6989 59.3268L30.5904 59.3268L30.5904 57.0721ZM23.8314 59.1941L23.8314 57.2047L30.4579 57.2047L30.4579 59.1941L23.8314 59.1941Z" fill="rgb(40.6894,48.8731,60.389)" fill-rule="evenodd" />
                <path id="Rectangle 10 Copy 8" d="M29.6627 10.5199L23.6989 10.5199L23.6989 12.7746L29.6627 12.7746L29.6627 10.5199ZM23.8314 12.642L23.8314 10.6526L29.5302 10.6526L29.5302 12.642L23.8314 12.642Z" fill="rgb(40.6894,48.8731,60.389)" fill-rule="evenodd" />
                <path id="Rectangle 10" d="M22.241 48.9818L14.2892 48.9818L14.2892 59.3268L22.241 59.3268L22.241 48.9818ZM14.4217 59.1941L14.4217 49.1145L22.1085 49.1145L22.1085 59.1941L14.4217 59.1941Z" fill="rgb(40.6894,48.8731,60.389)" fill-rule="evenodd" />
                <path id="Rectangle 10 Copy 3" d="M17.8675 56.9395L14.8193 56.9395L14.8193 58.9289L17.8675 58.9289L17.8675 56.9395ZM17.735 58.7962L14.9519 58.7962L14.9519 57.0721L17.735 57.0721L17.735 58.7962Z" fill="rgb(40.6894,48.8731,60.389)" fill-rule="evenodd" />
                <path id="Rectangle 10 Copy 4" d="M21.5783 56.9395L18.5302 56.9395L18.5302 58.9289L21.5783 58.9289L21.5783 56.9395ZM18.6627 58.7962L18.6627 57.0721L21.4458 57.0721L21.4458 58.7962L18.6627 58.7962Z" fill="rgb(40.6894,48.8731,60.389)" fill-rule="evenodd" />
                <path id="Rectangle 10 Copy" d="M22.241 48.9818L14.2892 48.9818L14.2892 56.2763L22.241 56.2763L22.241 48.9818ZM14.4217 56.1437L14.4217 49.1145L22.1085 49.1145L22.1085 56.1437L14.4217 56.1437Z" fill="rgb(40.6894,48.8731,60.389)" fill-rule="evenodd" />
                <path id="Rectangle 10 Copy 2" d="M22.241 48.9818L14.2892 48.9818L14.2892 54.9501L22.241 54.9501L22.241 48.9818ZM14.4217 54.8174L14.4217 49.1145L22.1085 49.1145L22.1085 54.8174L14.4217 54.8174Z" fill="rgb(40.6894,48.8731,60.389)" fill-rule="evenodd" />
                <path id="Rectangle 10" d="M7.95181 0L0 0L0 10.3449L7.95181 10.3449L7.95181 0ZM0.13253 10.2123L0.13253 0.132628L7.81928 0.132628L7.81928 10.2123L0.13253 10.2123Z" fill="rgb(40.6894,48.8731,60.389)" fill-rule="evenodd" transform="matrix(1,0,0,-1,14.2892,20.8649)" />
                <path id="Rectangle 10 Copy 3" d="M3.04819 0L0 0L0 1.98941L3.04819 1.98941L3.04819 0ZM0.13253 1.85678L0.13253 0.132627L2.91566 0.132627L2.91566 1.85678L0.13253 1.85678Z" fill="rgb(40.6894,48.8731,60.389)" fill-rule="evenodd" transform="matrix(1,0,0,-1,14.8193,12.9072)" />
                <path id="Rectangle 10 Copy 4" d="M3.04819 0L0 0L0 1.98941L3.04819 1.98941L3.04819 0ZM0.13253 1.85678L0.13253 0.132627L2.91566 0.132627L2.91566 1.85678L0.13253 1.85678Z" fill="rgb(40.6894,48.8731,60.389)" fill-rule="evenodd" transform="matrix(1,0,0,-1,18.5302,12.9072)" />
                <path id="Rectangle 10 Copy" d="M7.95181 0L0 0L0 7.2945L7.95181 7.2945L7.95181 0ZM0.13253 7.16187L0.13253 0.132627L7.81928 0.132627L7.81928 7.16187L0.13253 7.16187Z" fill="rgb(40.6894,48.8731,60.389)" fill-rule="evenodd" transform="matrix(1,0,0,-1,14.2892,20.8649)" />
                <path id="Rectangle 10 Copy 2" d="M7.95181 0L0 0L0 5.96823L7.95181 5.96823L7.95181 0ZM0.13253 5.8356L0.13253 0.132627L7.81928 0.132627L7.81928 5.8356L0.13253 5.8356Z" fill="rgb(40.6894,48.8731,60.389)" fill-rule="evenodd" transform="matrix(1,0,0,-1,14.2892,20.8649)" />
                <path id="Rectangle 10" d="M4.24407 0L0 0L0 10.3373L4.24407 10.3373L4.24407 0ZM0.132627 10.2048L0.132627 0.132526L4.11145 0.132526L4.11145 10.2048L0.132627 10.2048Z" fill="rgb(40.6894,48.8731,60.389)" fill-rule="evenodd" transform="matrix(6.11874e-17,1,1,-6.12773e-17,40.3976,22.589)" />
                <path id="Rectangle 10 Copy 3" d="M3.05043 0L0 0L0 1.98795L3.05043 1.98795L3.05043 0ZM0.132627 1.85542L0.132627 0.13253L2.9178 0.13253L2.9178 1.85542L0.132627 1.85542Z" fill="rgb(40.6894,48.8731,60.389)" fill-rule="evenodd" transform="matrix(6.11874e-17,1,1,-6.12773e-17,48.3494,23.1195)" />
                <path id="Rectangle 10 Copy" d="M4.24407 0L0 0L0 7.28915L4.24407 7.28915L4.24407 0ZM0.132627 7.15662L0.132627 0.132526L4.11145 0.132526L4.11145 7.15662L0.132627 7.15662Z" fill="rgb(40.6894,48.8731,60.389)" fill-rule="evenodd" transform="matrix(6.11874e-17,1,1,-6.12773e-17,40.3976,22.589)" />
                <path id="Rectangle 10 Copy 2" d="M4.24407 0L0 0L0 5.96385L4.24407 5.96385L4.24407 0ZM0.132627 5.83132L0.132627 0.132526L4.11145 0.132526L4.11145 5.83132L0.132627 5.83132Z" fill="rgb(40.6894,48.8731,60.389)" fill-rule="evenodd" transform="matrix(6.11874e-17,1,1,-6.12773e-17,40.3976,22.589)" />
                <path id="Rectangle 10" d="M4.24407 0L0 0L0 10.3373L4.24407 10.3373L4.24407 0ZM0.132627 10.2048L0.132627 0.132526L4.11145 0.132526L4.11145 10.2048L0.132627 10.2048Z" fill="rgb(40.6894,48.8731,60.389)" fill-rule="evenodd" transform="matrix(6.11875e-17,1,1,-6.12773e-17,40.3976,10.5199)" />
                <path id="Rectangle 10 Copy 3" d="M3.05043 0L0 0L0 1.98795L3.05043 1.98795L3.05043 0ZM0.132627 1.85542L0.132627 0.13253L2.9178 0.13253L2.9178 1.85542L0.132627 1.85542Z" fill="rgb(40.6894,48.8731,60.389)" fill-rule="evenodd" transform="matrix(6.11874e-17,1,1,-6.12773e-17,48.3494,11.0504)" />
                <path id="Rectangle 10 Copy" d="M4.24407 0L0 0L0 7.28915L4.24407 7.28915L4.24407 0ZM0.132627 7.15662L0.132627 0.132526L4.11145 0.132526L4.11145 7.15662L0.132627 7.15662Z" fill="rgb(40.6894,48.8731,60.389)" fill-rule="evenodd" transform="matrix(6.11875e-17,1,1,-6.12773e-17,40.3976,10.5199)" />
                <path id="Rectangle 10 Copy 2" d="M4.24407 0L0 0L0 5.96385L4.24407 5.96385L4.24407 0ZM0.132627 5.83132L0.132627 0.132526L4.11145 0.132526L4.11145 5.83132L0.132627 5.83132Z" fill="rgb(40.6894,48.8731,60.389)" fill-rule="evenodd" transform="matrix(6.11874e-17,1,1,-6.12773e-17,40.3976,10.5199)" />
                <path id="Rectangle 12" d="M33.6386 10.5199L30.3253 10.5199L30.3253 19.1407L33.6386 19.1407L33.6386 10.5199ZM30.4578 19.0081L30.4578 10.6526L33.506 10.6526L33.506 19.0081L30.4578 19.0081Z" fill="rgb(40.6894,48.8731,60.389)" fill-rule="evenodd" />
                <path id="Rectangle 9 Copy 8" d="M14.8835 42.475L12.7631 42.475L12.7631 44.3463L14.8835 44.3463L14.8835 42.475ZM14.751 44.2137L12.8956 44.2137L12.8956 42.6076L14.751 42.6076L14.751 44.2137Z" fill="rgb(40.6894,48.8731,60.389)" fill-rule="evenodd" />
                <path id="Rectangle 12 Copy" d="M3.31568 0L0 0L0 8.61446L3.31568 8.61446L3.31568 0ZM3.18305 8.48193L0.132627 8.48193L0.132627 0.132528L3.18305 0.132528L3.18305 8.48193Z" fill="rgb(40.6894,48.8731,60.389)" fill-rule="evenodd" transform="matrix(-1.83563e-16,1,-1,-1.83832e-16,18.0715,39.2992)" />
                <path id="Rectangle 14" d="M71.0121 36.3822L58.6868 36.3822L58.6868 39.5653L71.0121 39.5653L71.0121 36.3822ZM58.8193 39.4327L58.8193 36.5149L70.8795 36.5149L70.8795 39.4327L58.8193 39.4327Z" fill="rgb(40.6894,48.8731,60.389)" fill-rule="evenodd" />
            </g>
        </g>
    </g>
</svg>
